<?xml version="1.0" standalone="no"?>
<!DOCTYPE svg PUBLIC "-//W3C//DTD SVG 20010904//EN"
 "http://www.w3.org/TR/2001/REC-SVG-20010904/DTD/svg10.dtd">
<svg version="1.0" xmlns="http://www.w3.org/2000/svg"
 width="247.000000pt" height="248.000000pt" viewBox="0 0 247.000000 248.000000"
 preserveAspectRatio="xMidYMid meet">

<g transform="translate(0.000000,248.000000) scale(0.100000,-0.100000)"
fill="#000000" stroke="none">
<path d="M1077 2160 c-305 -55 -569 -257 -678 -518 -21 -50 -33 -100 -36 -142
-4 -57 -2 -69 20 -102 l25 -36 -25 -24 c-20 -19 -24 -31 -22 -68 2 -33 -3 -55
-19 -80 -36 -57 -25 -133 24 -165 22 -14 22 -16 7 -46 -19 -38 -13 -123 10
-146 14 -14 14 -18 -5 -43 -18 -25 -20 -39 -16 -127 3 -85 8 -105 33 -152 30
-54 82 -103 145 -137 33 -18 72 -19 679 -22 720 -3 698 -5 789 67 26 21 60 61
77 92 25 47 30 67 33 152 4 88 2 102 -16 127 -19 25 -19 29 -5 43 23 23 29
108 10 146 -15 30 -15 32 7 46 28 19 46 56 46 96 0 33 -25 89 -40 89 -4 0 -6
24 -3 53 5 47 3 55 -19 76 l-25 24 23 35 c34 50 32 121 -6 221 -94 244 -311
435 -587 517 -73 22 -112 27 -233 30 -80 1 -167 -1 -193 -6z m383 -70 c275
-67 511 -275 590 -519 27 -85 22 -126 -21 -167 l-30 -29 -745 -3 c-831 -3
-796 -5 -829 65 -48 101 84 353 255 487 218 171 507 233 780 166z m591 -780
c42 -23 16 -70 -38 -70 -37 0 -68 -14 -136 -60 -25 -16 -54 -30 -64 -30 -11 0
-48 18 -83 41 -99 64 -127 62 -237 -12 -23 -16 -50 -29 -60 -29 -10 0 -52 21
-93 46 -92 56 -120 55 -208 -5 -34 -23 -70 -41 -82 -41 -12 0 -40 13 -63 29
-110 75 -137 77 -231 16 -38 -25 -78 -45 -88 -45 -11 0 -38 13 -61 29 -66 44
-103 61 -140 61 -53 0 -79 46 -39 69 24 14 1596 15 1623 1z m-1491 -167 c92
-59 125 -61 193 -15 101 68 102 68 161 31 131 -83 140 -84 249 -14 39 25 73
45 77 45 4 0 38 -20 77 -45 109 -70 118 -69 249 14 59 37 60 37 161 -31 68
-46 101 -44 193 15 66 43 80 48 115 43 49 -6 79 -38 70 -75 -14 -59 37 -56
-849 -59 -527 -1 -823 1 -840 8 -53 20 -55 99 -4 120 44 17 75 10 148 -37z
m1481 -172 c38 -38 38 -74 0 -112 l-29 -29 -772 0 -772 0 -29 29 c-16 16 -29
39 -29 50 0 31 20 68 44 79 14 7 282 11 789 11 l769 1 29 -29z m-630 -302
c101 -61 190 -114 197 -116 7 -3 65 46 130 111 l118 116 90 0 c120 0 128 -8
122 -118 -5 -92 -33 -150 -95 -202 -73 -60 -77 -60 -733 -60 -656 0 -660 0
-733 60 -63 53 -90 111 -95 205 -4 67 -1 84 13 98 15 15 54 17 409 17 l393 0
184 -111z m349 103 c0 -10 -143 -152 -154 -152 -11 0 -245 141 -252 151 -3 5
87 9 200 9 113 0 206 -3 206 -8z"/>
<path d="M1117 1923 c-15 -14 -7 -63 12 -73 29 -15 39 -13 56 14 22 33 5 66
-34 66 -15 0 -31 -3 -34 -7z"/>
<path d="M836 1844 c-30 -30 -13 -74 29 -74 42 0 59 44 29 74 -8 9 -22 16 -29
16 -7 0 -21 -7 -29 -16z"/>
<path d="M1395 1840 c-15 -17 -16 -24 -7 -46 10 -21 18 -25 45 -22 27 3 32 7
35 33 3 19 -2 33 -14 42 -25 18 -38 16 -59 -7z"/>
<path d="M1088 1669 c-36 -21 -16 -79 27 -79 42 0 59 44 29 74 -18 18 -32 20
-56 5z"/>
<path d="M1786 1644 c-19 -18 -20 -28 -6 -55 20 -37 80 -18 80 26 0 42 -44 59
-74 29z"/>
<path d="M736 1604 c-30 -30 -13 -74 29 -74 42 0 59 44 29 74 -8 9 -22 16 -29
16 -7 0 -21 -7 -29 -16z"/>
<path d="M1452 1568 c-7 -7 -12 -21 -12 -33 0 -12 5 -26 12 -33 7 -7 21 -12
33 -12 12 0 26 5 33 12 7 7 12 21 12 33 0 12 -5 26 -12 33 -7 7 -21 12 -33 12
-12 0 -26 -5 -33 -12z"/>
</g>
</svg>
